<mxfile host="app.diagrams.net" modified="2021-03-03T06:34:15.350Z" agent="5.0 (Macintosh; Intel Mac OS X 10_15_6) AppleWebKit/605.1.15 (KHTML, like Gecko) Version/14.0.3 Safari/605.1.15" etag="qqAaaUcVlt-ZB8cljGEo" version="14.4.3" type="github">
  <diagram id="QO0TOcYqyTY8CtWTL1_r" name="Page-1">
    <mxGraphModel dx="946" dy="620" grid="1" gridSize="10" guides="1" tooltips="1" connect="1" arrows="1" fold="1" page="1" pageScale="1" pageWidth="827" pageHeight="1169" math="0" shadow="0">
      <root>
        <mxCell id="0" />
        <mxCell id="1" parent="0" />
        <mxCell id="4j5Vw-Ui23RAjlFMlg0W-5" value="" style="rounded=0;whiteSpace=wrap;html=1;glass=0;shadow=0;sketch=1;" vertex="1" parent="1">
          <mxGeometry x="280" y="40" width="240" height="480" as="geometry" />
        </mxCell>
        <mxCell id="4j5Vw-Ui23RAjlFMlg0W-6" value="Бренд:" style="rounded=0;whiteSpace=wrap;html=1;shadow=0;glass=0;sketch=1;fillColor=#e1d5e7;strokeColor=#9673a6;" vertex="1" parent="1">
          <mxGeometry x="294" y="50" width="76" height="30" as="geometry" />
        </mxCell>
        <mxCell id="4j5Vw-Ui23RAjlFMlg0W-7" value="MANGO" style="rounded=1;whiteSpace=wrap;html=1;shadow=0;glass=0;sketch=1;fillColor=#ffe6cc;strokeColor=#d79b00;" vertex="1" parent="1">
          <mxGeometry x="380" y="50" width="130" height="30" as="geometry" />
        </mxCell>
        <mxCell id="4j5Vw-Ui23RAjlFMlg0W-8" value="Made in:" style="rounded=0;whiteSpace=wrap;html=1;shadow=0;glass=0;sketch=1;fillColor=#e1d5e7;strokeColor=#9673a6;" vertex="1" parent="1">
          <mxGeometry x="294" y="90" width="76" height="30" as="geometry" />
        </mxCell>
        <mxCell id="4j5Vw-Ui23RAjlFMlg0W-9" value="" style="rounded=1;whiteSpace=wrap;html=1;shadow=0;glass=0;sketch=1;fillColor=#ffe6cc;strokeColor=#d79b00;" vertex="1" parent="1">
          <mxGeometry x="380" y="90" width="130" height="30" as="geometry" />
        </mxCell>
        <mxCell id="4j5Vw-Ui23RAjlFMlg0W-11" value="Note" style="shape=note;size=20;whiteSpace=wrap;html=1;rounded=0;shadow=0;glass=0;sketch=1;" vertex="1" parent="1">
          <mxGeometry x="300" y="400" width="200" height="100" as="geometry" />
        </mxCell>
      </root>
    </mxGraphModel>
  </diagram>
</mxfile>
